<?xml version="1.0" encoding="UTF-8"?>
<svg xmlns="http://www.w3.org/2000/svg"
     width="2048" height="2048" viewBox="0 0 1254 1254"
     role="img" aria-label="Cliplet logo">
  <title>Cliplet</title>
  <g fill="#000000" fill-rule="nonzero">
    <path d="M 373 190 L 367 195 L 363 197 L 360 200 L 356 202 L 344 213 L 343 213 L 321 235 L 321 236 L 315 242 L 315 243 L 311 247 L 311 248 L 308 251 L 306 255 L 303 258 L 303 259 L 297 267 L 296 270 L 292 275 L 291 278 L 289 280 L 279 300 L 279 302 L 276 307 L 276 309 L 274 312 L 273 317 L 271 320 L 271 322 L 270 323 L 270 325 L 268 329 L 268 332 L 266 336 L 266 339 L 265 340 L 265 343 L 264 344 L 264 347 L 263 348 L 263 352 L 262 353 L 262 358 L 261 359 L 261 363 L 260 364 L 260 371 L 259 372 L 259 381 L 258 382 L 258 849 L 259 850 L 259 861 L 260 862 L 260 868 L 261 869 L 261 875 L 262 876 L 262 879 L 263 880 L 263 884 L 264 885 L 264 889 L 265 890 L 266 897 L 267 898 L 267 900 L 269 904 L 269 907 L 270 908 L 271 913 L 273 916 L 273 918 L 276 924 L 276 926 L 280 933 L 280 935 L 287 949 L 289 951 L 291 956 L 293 958 L 294 961 L 298 966 L 299 969 L 304 975 L 306 979 L 313 987 L 313 988 L 318 993 L 318 994 L 335 1012 L 336 1012 L 351 1026 L 352 1026 L 363 1035 L 364 1035 L 366 1037 L 367 1037 L 378 1045 L 394 1053 L 396 1055 L 398 1055 L 407 1060 L 409 1060 L 417 1064 L 422 1065 L 425 1067 L 427 1067 L 428 1068 L 431 1068 L 432 1069 L 434 1069 L 438 1071 L 441 1071 L 445 1073 L 449 1073 L 450 1074 L 453 1074 L 454 1075 L 458 1075 L 459 1076 L 464 1076 L 465 1077 L 471 1077 L 472 1078 L 480 1078 L 481 1079 L 916 1079 L 917 1078 L 922 1078 L 923 1077 L 926 1077 L 927 1076 L 929 1076 L 930 1075 L 935 1074 L 947 1068 L 949 1066 L 953 1064 L 956 1061 L 957 1061 L 970 1048 L 970 1047 L 973 1044 L 973 1043 L 975 1041 L 976 1038 L 979 1034 L 979 1032 L 982 1027 L 982 1025 L 983 1024 L 983 1022 L 985 1018 L 985 1014 L 986 1013 L 986 1009 L 987 1008 L 987 985 L 986 984 L 986 979 L 985 978 L 985 975 L 984 974 L 984 972 L 983 971 L 982 966 L 980 963 L 980 961 L 978 957 L 976 955 L 975 952 L 970 946 L 970 945 L 956 931 L 955 931 L 952 928 L 951 928 L 946 924 L 938 920 L 936 920 L 931 917 L 928 917 L 927 916 L 924 916 L 923 915 L 920 915 L 919 914 L 912 914 L 911 913 L 494 913 L 493 912 L 488 912 L 487 911 L 484 911 L 483 910 L 480 910 L 479 909 L 477 909 L 474 907 L 472 907 L 462 902 L 460 900 L 457 899 L 451 894 L 450 894 L 436 880 L 436 879 L 433 876 L 430 870 L 428 868 L 423 858 L 423 856 L 420 850 L 420 847 L 419 846 L 419 843 L 418 842 L 418 837 L 417 836 L 417 399 L 418 398 L 418 392 L 419 391 L 420 384 L 421 383 L 422 378 L 424 375 L 424 373 L 428 365 L 430 363 L 431 360 L 436 354 L 436 353 L 442 347 L 442 346 L 444 345 L 452 337 L 453 337 L 459 332 L 462 331 L 464 329 L 472 325 L 474 325 L 477 323 L 479 323 L 480 322 L 483 322 L 484 321 L 487 321 L 488 320 L 492 320 L 493 319 L 500 319 L 501 318 L 915 318 L 916 317 L 921 317 L 922 316 L 925 316 L 926 315 L 928 315 L 929 314 L 931 314 L 932 313 L 937 312 L 943 309 L 945 307 L 948 306 L 953 302 L 954 302 L 958 298 L 959 298 L 967 290 L 967 289 L 971 285 L 971 284 L 976 278 L 981 268 L 982 263 L 984 260 L 984 257 L 985 256 L 985 253 L 986 252 L 986 247 L 987 246 L 987 223 L 986 222 L 986 217 L 985 216 L 985 213 L 984 212 L 983 207 L 981 204 L 981 202 L 977 194 L 975 192 L 975 191 L 973 189 L 971 185 L 967 181 L 967 180 L 959 172 L 958 172 L 955 169 L 954 169 L 948 164 L 936 158 L 934 158 L 931 156 L 929 156 L 928 155 L 925 155 L 924 154 L 921 154 L 920 153 L 914 153 L 913 152 L 485 152 L 484 153 L 474 153 L 473 154 L 467 154 L 466 155 L 461 155 L 460 156 L 451 157 L 450 158 L 443 159 L 439 161 L 436 161 L 435 162 L 433 162 L 432 163 L 430 163 L 429 164 L 427 164 L 426 165 L 421 166 L 418 168 L 416 168 L 413 170 L 411 170 L 406 173 L 404 173 L 388 181 L 386 183 L 383 184 L 381 186 Z"/><path d="M 610 503 L 606 507 L 606 508 L 601 514 L 598 520 L 598 522 L 596 526 L 596 529 L 595 530 L 595 838 L 596 839 L 596 843 L 597 844 L 598 849 L 601 853 L 602 856 L 605 859 L 605 860 L 615 869 L 623 873 L 625 873 L 629 875 L 634 875 L 635 876 L 886 876 L 887 875 L 891 875 L 892 874 L 895 874 L 896 873 L 898 873 L 904 870 L 910 865 L 911 865 L 913 863 L 913 862 L 918 857 L 919 854 L 922 850 L 922 848 L 924 844 L 924 841 L 925 840 L 925 834 L 926 833 L 926 606 L 925 605 L 925 600 L 924 599 L 923 594 L 920 588 L 918 586 L 918 585 L 910 577 L 909 577 L 894 562 L 893 562 L 875 544 L 874 544 L 845 515 L 844 515 L 829 500 L 817 494 L 814 494 L 813 493 L 805 493 L 804 492 L 797 492 L 796 493 L 792 493 L 791 492 L 790 493 L 757 493 L 756 492 L 751 492 L 750 493 L 737 493 L 736 492 L 734 493 L 651 493 L 650 492 L 645 492 L 644 493 L 630 493 L 629 494 L 627 494 L 626 495 L 621 496 L 617 498 L 615 500 L 614 500 L 611 503 Z"/><path d="M 709 390 L 707 390 L 703 388 L 699 388 L 698 387 L 681 387 L 680 386 L 652 386 L 651 387 L 647 387 L 646 386 L 600 386 L 599 387 L 572 387 L 571 386 L 565 386 L 564 387 L 517 387 L 516 388 L 514 388 L 513 389 L 508 390 L 506 392 L 500 395 L 493 401 L 493 402 L 489 406 L 488 409 L 486 411 L 485 413 L 485 415 L 484 416 L 484 418 L 483 419 L 483 421 L 482 422 L 482 426 L 481 427 L 481 755 L 482 756 L 482 760 L 483 761 L 483 764 L 487 772 L 489 774 L 491 778 L 498 785 L 499 785 L 504 789 L 508 791 L 510 791 L 513 793 L 517 793 L 518 794 L 545 794 L 545 497 L 546 496 L 546 490 L 547 489 L 548 484 L 553 474 L 555 472 L 555 471 L 566 460 L 567 460 L 572 456 L 576 454 L 578 454 L 581 452 L 584 452 L 585 451 L 590 451 L 591 450 L 750 450 L 750 441 L 749 440 L 749 436 L 748 435 L 748 433 L 747 432 L 746 427 L 741 417 L 739 415 L 739 414 L 736 411 L 736 410 L 727 401 L 726 401 L 719 395 Z"/>
  </g>
</svg>
